<?xml version="1.0" encoding="utf-8"?>
<!-- Generator: Adobe Illustrator 18.1.1, SVG Export Plug-In . SVG Version: 6.00 Build 0)  -->
<svg version="1.1" id="Layer_1" xmlns="http://www.w3.org/2000/svg" xmlns:xlink="http://www.w3.org/1999/xlink" x="0px" y="0px"
	 viewBox="91 35 575 286" enable-background="new 91 35 575 286" xml:space="preserve">
<path fill="none" stroke="#000000" d="M191.1,136.1c0,18.6-11,29.2-28.8,29.2c-11.1,0-20.3-4.9-27.2-13.3l7.4-11.9
	c6.1,6.6,13.3,10.2,19.7,10.2c8.3,0,13.2-5.1,13.2-14.7V86.2h-32v-14h47.7V136.1z"/>
<path fill="none" stroke="#000000" d="M213.4,164.6V72.2H229v92.4H213.4z"/>
<path fill="none" stroke="#000000" d="M318.1,164.6l-49.2-66.3v66.3h-15.6V72.2h15.3l49.5,66.4V72.2h15.3v92.4H318.1z"/>
<path fill="none" stroke="#000000" d="M434.6,119.2v34.1c-9.4,7.1-23.2,12-35.9,12c-27.3,0-48.6-20.5-48.6-46.9s21.5-46.6,49.5-46.6
	c13.2,0,26.4,5,35.5,12.9l-8.8,11.5c-7.1-6.6-17-10.6-26.7-10.6c-18.9,0-33.7,14.4-33.7,32.7c0,18.5,14.9,32.9,33.8,32.9
	c6.9,0,14.7-2.4,21.3-6.3v-25.7H434.6z"/>
<path fill="none" stroke="#000000" d="M333.4,200l-9.1,11.4c-6.7-7.3-16.4-11.7-25.7-11.7c-18.5,0-33,14.3-33,32.5
	s14.5,32.6,33,32.6c9.2,0,18.7-4.2,25.7-11l9.2,10.3c-9.4,9.2-22.7,15.2-35.8,15.2c-27.1,0-48-20.5-48-47
	c0-26.3,21.3-46.5,48.6-46.5C311.4,185.8,324.5,191.2,333.4,200z"/>
<path fill="none" stroke="#000000" d="M414,278.6v-38.3h-49v38.3h-15.6v-92.4H365v40.1h49v-40.1h15.6v92.4H414z"/>
<path fill="none" stroke="#000000" d="M469.4,200.2v24.9h45.1v14h-45.1v25.5h52v14h-67.6v-92.4h66v14H469.4z"/>
<path fill="none" stroke="#000000" d="M605.2,278.6L556,212.3v66.3h-15.6v-92.4h15.3l49.5,66.4v-66.4h15.3v92.4H605.2z"/>
</svg>
